Coordinates
version=1
nRows=39
nColumns=38
inDegrees=no

Units are S.I. units (second, meters, Newtons, ...)
If the header above contains a line with 'inDegrees', this indicates whether rotational values are in degrees (yes) or radians (no).

endheader
time	pelvis_tilt	pelvis_list	pelvis_rotation	pelvis_tx	pelvis_ty	pelvis_tz	hip_flexion_r	hip_adduction_r	hip_rotation_r	knee_angle_r	ankle_angle_r	subtalar_angle_r	mtp_angle_r	hip_flexion_l	hip_adduction_l	hip_rotation_l	knee_angle_l	ankle_angle_l	subtalar_angle_l	mtp_angle_l	lumbar_extension	lumbar_bending	lumbar_rotation	arm_flex_r	arm_add_r	arm_rot_r	elbow_flex_r	pro_sup_r	wrist_flex_r	wrist_dev_r	arm_flex_l	arm_add_l	arm_rot_l	elbow_flex_l	pro_sup_l	wrist_flex_l	wrist_dev_l
0	2.91917	1.2842	-1.34421	0.684912	-0.420316	0.95375	-0.381436	0.0350677	-0.210897	0	-0.076178	0	0	-0.413924	-0.0517353	-0.254451	0	-0.00187715	0	0	-0.398311	0.0658487	0.0568252	0.0738934	-0.311853	0.774727	0.546619	0.859795	0	0	0.0816127	-0.164097	0.201891	0.484967	1.5708	0	0
0.01	2.91683	1.28635	-1.34233	0.684884	-0.419996	0.953631	-0.379409	0.0349457	-0.210418	0	-0.0760019	0	0	-0.412126	-0.0517326	-0.254841	0	-0.00135987	0	0	-0.395073	0.0657479	0.0578514	0.0763005	-0.31075	0.772925	0.540755	0.853211	0	0	0.0805272	-0.16901	0.219251	0.488326	1.5708	0	0
0.02	2.88677	1.30157	-1.30928	0.68544	-0.418935	0.952225	-0.362052	0.0421444	-0.212567	0	-0.0750246	0	0	-0.396973	-0.0624098	-0.241198	0	0.00484748	0	0	-0.372372	0.0650213	0.0548442	0.0758202	-0.293208	0.755765	0.511695	0.85451	0	0	0.0765683	-0.172429	0.225704	0.487277	1.5708	0	0
0.03	2.88616	1.28984	-1.31098	0.684834	-0.419536	0.952507	-0.373877	0.0434779	-0.209412	0	-0.073586	0	0	-0.409602	-0.0635347	-0.245683	0	0.00624271	0	0	-0.387485	0.0742157	0.0599632	0.0754597	-0.310229	0.764311	0.538243	0.854384	0	0	0.078698	-0.168834	0.227974	0.489527	1.5708	0	0
0.04	2.88563	1.28789	-1.311	0.684718	-0.419462	0.952607	-0.376104	0.0437079	-0.208085	0	-0.0736044	0	0	-0.411744	-0.063682	-0.246928	0	0.00599711	0	0	-0.38917	0.074992	0.0608124	0.0771171	-0.311076	0.768395	0.537443	0.852851	0	0	0.0782289	-0.168241	0.228546	0.490125	1.5708	0	0
0.05	2.88429	1.29372	-1.30834	0.684799	-0.418886	0.952416	-0.370374	0.0432833	-0.209132	0	-0.0739731	0	0	-0.405189	-0.0633264	-0.244797	0	0.00497877	0	0	-0.381408	0.0707951	0.0593248	0.0759974	-0.307141	0.688242	0.540302	0.769837	0	0	0.0768208	-0.169483	0.229461	0.489584	1.5708	0	0
0.06	2.8843	1.28641	-1.30941	0.684438	-0.419294	0.952688	-0.378055	0.0439279	-0.206881	0	-0.074114	0	0	-0.413095	-0.0639846	-0.247653	0	0.00571661	0	0	-0.38989	0.0760044	0.0622015	0.0776302	-0.310758	0.767745	0.53652	0.812734	0	0	0.078227	-0.167522	0.232218	0.49014	1.5708	0	0
0.07	2.88401	1.28484	-1.30928	0.684306	-0.419178	0.952799	-0.380051	0.04389	-0.205587	0	-0.0750841	0	0	-0.414766	-0.0640532	-0.248609	0	0.00559357	0	0	-0.391114	0.0766836	0.062042	0.0809358	-0.312907	0.779328	0.535691	0.829208	0	0	0.0772785	-0.167197	0.231952	0.49115	1.5708	0	0
0.08	2.88026	1.29997	-1.30325	0.6848	-0.418159	0.952415	-0.365119	0.0422619	-0.207503	0	-0.07517	0	0	-0.398352	-0.0627394	-0.244055	0	0.00378648	0	0	-0.369887	0.0651241	0.0564465	0.0939481	-0.240873	0.670461	0.411051	0.885537	0	0	0.0730457	-0.170837	0.231637	0.488707	1.5708	0	0
0.09	2.88244	1.29128	-1.30713	0.684341	-0.418321	0.952562	-0.374281	0.0421731	-0.204459	0	-0.0741609	0	0	-0.407868	-0.0629766	-0.247249	0	0.00512822	0	0	-0.382005	0.0722953	0.0613344	0.0678319	-0.304708	0.63231	0.547278	0.816501	0	0	0.0750817	-0.168191	0.233028	0.491049	1.5708	0	0
0.1	2.89602	1.31202	-1.3238	0.684469	-0.417046	0.951042	-0.356299	0.0266549	-0.1939	0	-0.0687497	0	0	-0.387981	-0.0520686	-0.246097	0	0.00443618	0	0	-0.357917	0.0624308	0.061476	0.0667754	-0.300245	0.61529	0.536897	0.716218	0	0	0.0700747	-0.167587	0.230568	0.487756	1.5708	0	0
0.11	2.90426	1.30257	-1.33294	0.684485	-0.417223	0.951089	-0.367008	0.0277458	-0.193826	0	-0.0669218	0	0	-0.3988	-0.0516291	-0.248785	0	0.00576867	0	0	-0.368441	0.0620274	0.0628618	0.0675628	-0.303072	0.605651	0.543748	0.656406	0	0	0.0699109	-0.169552	0.232441	0.494455	1.5708	0	0
0.12	2.89603	1.29302	-1.32646	0.684566	-0.417757	0.951628	-0.373956	0.0365613	-0.199184	0	-0.0704772	0	0	-0.408532	-0.0554253	-0.252404	0	0.00640339	0	0	-0.379727	0.0690682	0.0671498	0.0797933	-0.310172	0.762464	0.536041	0.751754	0	0	0.071333	-0.169069	0.23491	0.498645	1.5708	0	0
0.13	2.89701	1.29211	-1.32796	0.684475	-0.417677	0.951564	-0.375269	0.0362482	-0.198021	0	-0.0693174	0	0	-0.409735	-0.0547867	-0.252914	0	0.0068941	0	0	-0.380537	0.0691593	0.065958	0.0844049	-0.315294	0.783563	0.53885	0.79733	0	0	0.0682488	-0.169677	0.229945	0.504671	1.5708	0	0
0.14	2.89626	1.29227	-1.32782	0.684469	-0.417526	0.951406	-0.375278	0.0362625	-0.197202	0	-0.06869	0	0	-0.409877	-0.0545465	-0.252927	0	0.00754445	0	0	-0.379986	0.0691017	0.0662536	0.0848762	-0.315679	0.776589	0.539597	0.827327	0	0	0.0658809	-0.170316	0.225686	0.511061	1.5708	0	0
0.15	2.85318	1.29356	-1.28748	0.686748	-0.41742	0.950718	-0.369891	0.0511217	-0.193147	0	-0.0705758	0	0	-0.406025	-0.0688526	-0.260503	0	0.011931	0	0	-0.375576	0.0760866	0.0713385	0.0845311	-0.310443	0.761953	0.538285	0.855405	0	0	0.0630727	-0.176006	0.222802	0.521735	1.5708	0	0
0.16	2.89349	1.29465	-1.32515	0.684321	-0.417378	0.950895	-0.372691	0.036358	-0.197549	0	-0.0667808	0	0	-0.407155	-0.0543716	-0.253372	0	0.00873888	0	0	-0.376997	0.0692373	0.0667388	0.083562	-0.315542	0.749439	0.543541	0.875474	0	0	0.0609884	-0.17248	0.217495	0.529025	1.5708	0	0
0.17	2.8352	1.32379	-1.27288	0.682956	-0.416077	0.950234	-0.337305	0.0386498	-0.189851	0	-0.0708438	0	0	-0.371977	-0.0574118	-0.27141	0	0.0143349	0	0	-0.339402	0.0922729	0.0704787	0.0799699	-0.320795	0.730831	0.537145	0.927699	0	0	0.086987	-0.0848385	-0.0503476	0.417717	1.5708	0	0
0.18	2.8487	1.29464	-1.28422	0.686449	-0.417259	0.950983	-0.368129	0.050859	-0.194204	0	-0.0689626	0	0	-0.403044	-0.0687389	-0.275855	0	0.0190328	0	0	-0.375297	0.0774406	0.0693557	0.0859747	-0.310098	0.716899	0.546485	0.938595	0	0	0.0568742	-0.163455	0.136401	0.538259	1.5708	0	0
0.19	2.85409	1.29123	-1.28926	0.686452	-0.417246	0.951183	-0.372197	0.050822	-0.1961	0	-0.068553	0	0	-0.407199	-0.0682141	-0.274733	0	0.0184102	0	0	-0.379093	0.0762422	0.0713738	0.0832933	-0.311113	0.696945	0.555698	0.950779	0	0	0.04936	-0.178011	0.177381	0.574165	1.5708	0	0
0.2	2.88623	1.29284	-1.31812	0.683865	-0.417173	0.951164	-0.37374	0.0384894	-0.20119	0	-0.0653554	0	0	-0.407434	-0.0559019	-0.265557	0	0.0152112	0	0	-0.379221	0.0719265	0.0672002	0.0801589	-0.318079	0.676811	0.569102	0.96701	0	0	0.0446145	-0.177036	0.177574	0.593381	1.5708	0	0
0.21	2.88683	1.29235	-1.3189	0.683855	-0.417082	0.951212	-0.374284	0.0385835	-0.201874	0	-0.0652992	0	0	-0.408261	-0.0556583	-0.264258	0	0.0142178	0	0	-0.379576	0.071651	0.067848	0.0776964	-0.319424	0.65453	0.581115	0.985581	0	0	0.039465	-0.179204	0.167771	0.615344	1.5708	0	0
0.22	2.85767	1.2904	-1.29286	0.68628	-0.417087	0.951282	-0.373229	0.0504228	-0.19877	0	-0.0684153	0	0	-0.408706	-0.0668402	-0.272468	0	0.0162469	0	0	-0.379893	0.0750478	0.0731286	0.0758192	-0.315055	0.62863	0.591849	1.00553	0	0	0.0338899	-0.186583	0.157211	0.642772	1.5708	0	0
0.23	2.88954	1.29309	-1.32075	0.683591	-0.416917	0.951215	-0.373771	0.0378948	-0.204129	0	-0.0656095	0	0	-0.407652	-0.0545147	-0.262576	0	0.0135744	0	0	-0.378489	0.0708299	0.0681411	0.0707854	-0.322381	0.601876	0.611924	1.02899	0	0	0.0281721	-0.183212	0.144677	0.665773	1.5708	0	0
0.24	2.8901	1.29416	-1.32125	0.683519	-0.416772	0.951184	-0.372774	0.0375104	-0.204846	0	-0.0652708	0	0	-0.406743	-0.0539494	-0.261648	0	0.012908	0	0	-0.37692	0.0703091	0.0687041	0.0661771	-0.324421	0.577122	0.63103	1.05928	0	0	0.0218586	-0.185696	0.134528	0.694511	1.5708	0	0
0.25	2.88842	1.29948	-1.31924	0.6836	-0.416311	0.950985	-0.367254	0.0371293	-0.205861	0	-0.0652014	0	0	-0.401148	-0.0534235	-0.259945	0	0.0120325	0	0	-0.369747	0.0673633	0.0680463	0.0492726	-0.327921	0.478242	0.677007	1.00788	0	0	0.0143014	-0.189389	0.125169	0.725017	1.5708	0	0
0.26	2.88602	1.29745	-1.31717	0.683412	-0.416488	0.951029	-0.369019	0.0379143	-0.205951	0	-0.0646641	0	0	-0.403313	-0.0540306	-0.260159	0	0.0124255	0	0	-0.372001	0.070345	0.0707932	0.0548559	-0.329345	0.527539	0.678576	1.08703	0	0	0.00993596	-0.191786	0.120449	0.756442	1.5708	0	0
0.27	2.88275	1.29907	-1.31302	0.683228	-0.416439	0.950967	-0.367044	0.0386628	-0.207167	0	-0.0649931	0	0	-0.401305	-0.054687	-0.258747	0	0.0126319	0	0	-0.369799	0.0710243	0.0703658	0.0498178	-0.333026	0.503144	0.705642	1.14943	0	0	0.00375733	-0.195066	0.112994	0.789659	1.5708	0	0
0.28	2.88149	1.30154	-1.31168	0.683172	-0.416272	0.950905	-0.36448	0.0383927	-0.207423	0	-0.0656829	0	0	-0.398693	-0.054315	-0.258007	0	0.0120897	0	0	-0.366467	0.0705267	0.0708733	0.0424481	-0.335045	0.468602	0.736689	1.20791	0	0	-0.00195256	-0.198758	0.107029	0.822563	1.5708	0	0
0.29	2.89224	1.29687	-1.32079	0.683327	-0.416474	0.951045	-0.37029	0.0376043	-0.209664	0	-0.0650733	0	0	-0.40404	-0.0534747	-0.256445	0	0.0120756	0	0	-0.372286	0.0640147	0.0705166	0.0355564	-0.335607	0.432677	0.772821	1.26365	0	0	-0.0029074	-0.24989	0.19587	0.882564	1.5708	0	0
0.3	2.87961	1.30672	-1.30942	0.683092	-0.415978	0.950812	-0.35903	0.0376686	-0.208541	0	-0.0663274	0	0	-0.393139	-0.0534562	-0.255825	0	0.0108596	0	0	-0.359756	0.0689451	0.0725641	0.025287	-0.338375	0.391779	0.810911	1.33649	0	0	-0.0133754	-0.20996	0.103908	0.897481	1.5708	0	0
0.31	2.88868	1.30297	-1.31694	0.683298	-0.416178	0.950856	-0.363696	0.0371905	-0.210853	0	-0.0658507	0	0	-0.397351	-0.0529999	-0.25403	0	0.0113157	0	0	-0.364539	0.062374	0.071866	0.0190548	-0.339777	0.362093	0.853149	1.38213	0	0	-0.0138322	-0.260629	0.183823	0.959732	1.5708	0	0
0.32	2.88734	1.30574	-1.31562	0.683354	-0.416038	0.950788	-0.360734	0.0370057	-0.211293	0	-0.0662433	0	0	-0.394364	-0.0527003	-0.253059	0	0.0109586	0	0	-0.360929	0.0611345	0.0728226	0.0108285	-0.342665	0.331152	0.898318	1.42933	0	0	-0.0188164	-0.268704	0.184837	1.00217	1.5708	0	0
0.33	2.88505	1.30936	-1.31347	0.683417	-0.415908	0.950678	-0.356748	0.0367901	-0.211498	0	-0.0661317	0	0	-0.3904	-0.052383	-0.252251	0	0.0105804	0	0	-0.35637	0.0599844	0.0732208	0.00337504	-0.345787	0.302602	0.945676	1.47741	0	0	-0.023513	-0.27419	0.179289	1.04306	1.5708	0	0
0.34	2.96462	1.29325	-1.37817	0.680971	-0.417878	0.953322	-0.378271	0.0211133	-0.229608	0	-0.0681421	0	0	-0.406545	-0.0364722	-0.234071	0	0.000659084	0	0	-0.38357	0.0463927	0.0568153	0.00471883	-0.349227	0.275204	0.998896	1.52428	0	0	-0.0195492	-0.282033	0.173924	1.08925	1.5708	0	0
0.35	2.88461	1.31593	-1.31087	0.68326	-0.415892	0.950571	-0.349564	0.0359943	-0.214387	0	-0.0669242	0	0	-0.382541	-0.0516642	-0.247712	0	0.0095863	0	0	-0.349342	0.0574696	0.0712315	-0.00981524	-0.350224	0.24263	1.04858	1.5708	0	0	-0.0312585	-0.285983	0.1665	1.12884	1.5708	0	0
0.36	2.88292	1.31989	-1.30656	0.683012	-0.416198	0.950474	-0.344968	0.0361014	-0.217052	0	-0.0678226	0	0	-0.377122	-0.0519085	-0.24392	0	0.0093746	0	0	-0.34544	0.0569558	0.0682218	-0.0134965	-0.354556	0.223849	1.10156	1.5708	0	0	-0.0331571	-0.291608	0.16035	1.17118	1.5708	0	0
0.37	2.88044	1.324	-1.30438	0.682984	-0.41613	0.950327	-0.340366	0.0354646	-0.216928	0	-0.0678178	0	0	-0.372589	-0.0512785	-0.243589	0	0.00916411	0	0	-0.340684	0.0558655	0.067976	-0.0177423	-0.358793	0.204406	1.15596	1.5708	0	0	-0.0353606	-0.297007	0.154338	1.21395	1.5708	0	0
0.38	2.87771	1.32834	-1.30243	0.682978	-0.41596	0.950155	-0.335623	0.0346417	-0.216415	0	-0.0678428	0	0	-0.368006	-0.0504476	-0.243869	0	0.00912811	0	0	-0.335476	0.0547319	0.0680716	-0.0210928	-0.362723	0.184893	1.20952	1.5708	0	0	-0.0368726	-0.3023	0.148646	1.25664	1.5708	0	0
